<mxfile host="Electron" modified="2023-09-30T05:31:00.171Z" agent="Mozilla/5.0 (Windows NT 10.0; Win64; x64) AppleWebKit/537.36 (KHTML, like Gecko) draw.io/22.0.0 Chrome/114.0.5735.289 Electron/25.8.3 Safari/537.36" etag="R8C0KBkoTbVpK7Czsn3g" version="22.0.0" type="device">
  <diagram name="Side-1" id="7KbGkcvMWJQgFoKZaKla">
    <mxGraphModel dx="792" dy="1187" grid="1" gridSize="10" guides="1" tooltips="1" connect="1" arrows="1" fold="1" page="1" pageScale="1" pageWidth="827" pageHeight="1169" math="0" shadow="0">
      <root>
        <mxCell id="0" />
        <mxCell id="1" parent="0" />
        <mxCell id="vfJVIEdBpEGi3LuZGx0c-1" value="&lt;b&gt;Sender&lt;/b&gt;" style="whiteSpace=wrap;html=1;aspect=fixed;fillColor=#d5e8d4;strokeColor=#82b366;sketch=1;curveFitting=1;jiggle=2;fontFamily=Architects Daughter;fontSource=https%3A%2F%2Ffonts.googleapis.com%2Fcss%3Ffamily%3DArchitects%2BDaughter;" parent="1" vertex="1">
          <mxGeometry x="205" y="130" width="80" height="80" as="geometry" />
        </mxCell>
        <mxCell id="vfJVIEdBpEGi3LuZGx0c-2" value="&lt;b&gt;Receiver&lt;/b&gt;" style="whiteSpace=wrap;html=1;aspect=fixed;fillColor=#f8cecc;strokeColor=#b85450;sketch=1;curveFitting=1;jiggle=2;fontFamily=Architects Daughter;fontSource=https%3A%2F%2Ffonts.googleapis.com%2Fcss%3Ffamily%3DArchitects%2BDaughter;" parent="1" vertex="1">
          <mxGeometry x="395" y="130" width="80" height="80" as="geometry" />
        </mxCell>
        <mxCell id="vfJVIEdBpEGi3LuZGx0c-6" value="&lt;b&gt;&lt;font style=&quot;font-size: 20px;&quot;&gt;Synchronous&lt;/font&gt;&lt;/b&gt;" style="text;html=1;align=center;verticalAlign=middle;resizable=0;points=[];autosize=1;strokeColor=none;fillColor=none;sketch=1;curveFitting=1;jiggle=2;fontFamily=Architects Daughter;fontSource=https%3A%2F%2Ffonts.googleapis.com%2Fcss%3Ffamily%3DArchitects%2BDaughter;" parent="1" vertex="1">
          <mxGeometry x="260" y="60" width="140" height="40" as="geometry" />
        </mxCell>
        <mxCell id="vfJVIEdBpEGi3LuZGx0c-7" value="&lt;span&gt;Sender&lt;/span&gt;" style="whiteSpace=wrap;html=1;aspect=fixed;fillColor=#d5e8d4;strokeColor=#82b366;sketch=1;curveFitting=1;jiggle=2;fontFamily=Architects Daughter;fontSource=https%3A%2F%2Ffonts.googleapis.com%2Fcss%3Ffamily%3DArchitects%2BDaughter;fontStyle=1" parent="1" vertex="1">
          <mxGeometry x="120" y="300" width="80" height="80" as="geometry" />
        </mxCell>
        <mxCell id="vfJVIEdBpEGi3LuZGx0c-8" value="&lt;span&gt;Receiver&lt;/span&gt;" style="whiteSpace=wrap;html=1;aspect=fixed;fillColor=#f8cecc;strokeColor=#b85450;sketch=1;curveFitting=1;jiggle=2;fontFamily=Architects Daughter;fontSource=https%3A%2F%2Ffonts.googleapis.com%2Fcss%3Ffamily%3DArchitects%2BDaughter;fontStyle=1" parent="1" vertex="1">
          <mxGeometry x="480" y="300" width="80" height="80" as="geometry" />
        </mxCell>
        <mxCell id="vfJVIEdBpEGi3LuZGx0c-9" value="&lt;span&gt;Queue&lt;/span&gt;" style="shape=step;perimeter=stepPerimeter;whiteSpace=wrap;html=1;fixedSize=1;fillColor=#fff2cc;strokeColor=#d6b656;sketch=1;curveFitting=1;jiggle=2;fontFamily=Architects Daughter;fontSource=https%3A%2F%2Ffonts.googleapis.com%2Fcss%3Ffamily%3DArchitects%2BDaughter;fontStyle=1" parent="1" vertex="1">
          <mxGeometry x="275" y="320" width="120" height="40" as="geometry" />
        </mxCell>
        <mxCell id="vfJVIEdBpEGi3LuZGx0c-12" value="&lt;b&gt;&lt;font style=&quot;font-size: 20px;&quot;&gt;Asynchronous&lt;/font&gt;&lt;/b&gt;" style="text;html=1;align=center;verticalAlign=middle;resizable=0;points=[];autosize=1;strokeColor=none;fillColor=none;sketch=1;curveFitting=1;jiggle=2;fontFamily=Architects Daughter;fontSource=https%3A%2F%2Ffonts.googleapis.com%2Fcss%3Ffamily%3DArchitects%2BDaughter;" parent="1" vertex="1">
          <mxGeometry x="259" y="250" width="150" height="40" as="geometry" />
        </mxCell>
        <mxCell id="vfJVIEdBpEGi3LuZGx0c-18" value="" style="html=1;shadow=0;dashed=0;align=center;verticalAlign=middle;shape=mxgraph.arrows2.arrow;dy=0.6;dx=40;notch=0;sketch=1;curveFitting=1;jiggle=2;" parent="1" vertex="1">
          <mxGeometry x="205" y="330" width="70" height="20" as="geometry" />
        </mxCell>
        <mxCell id="vfJVIEdBpEGi3LuZGx0c-20" value="" style="html=1;shadow=0;dashed=0;align=center;verticalAlign=middle;shape=mxgraph.arrows2.arrow;dy=0.6;dx=40;notch=0;rotation=-180;sketch=1;curveFitting=1;jiggle=2;" parent="1" vertex="1">
          <mxGeometry x="290" y="180" width="100" height="20" as="geometry" />
        </mxCell>
        <mxCell id="vfJVIEdBpEGi3LuZGx0c-21" value="" style="html=1;shadow=0;dashed=0;align=center;verticalAlign=middle;shape=mxgraph.arrows2.arrow;dy=0.6;dx=40;notch=0;sketch=1;curveFitting=1;jiggle=2;" parent="1" vertex="1">
          <mxGeometry x="400" y="330" width="70" height="20" as="geometry" />
        </mxCell>
        <mxCell id="vfJVIEdBpEGi3LuZGx0c-23" value="" style="html=1;shadow=0;dashed=0;align=center;verticalAlign=middle;shape=mxgraph.arrows2.arrow;dy=0.6;dx=40;notch=0;rotation=0;sketch=1;curveFitting=1;jiggle=2;" parent="1" vertex="1">
          <mxGeometry x="290" y="150" width="100" height="20" as="geometry" />
        </mxCell>
      </root>
    </mxGraphModel>
  </diagram>
</mxfile>
